# xmcd
#
# Track frame offsets:
#	150
#	23022
#	41884
#	59135
#	78239
#	96011
#	108194
#	131580
#	149592
#	169517
#	182391
#	199392
#	220867
#	236378
#	259674
#
# Disc length: 3622 seconds
#
# Revision: 2
# Processed by: cddbd v1.5PL3 Copyright (c) Steve Scherf et al.
# Submitted via: CDmax 1.8
#
DISCID=cf0e240f
DTITLE=Joe Cocker - The Ultimate Collection CD1
DYEAR=2003
DGENRE=Blues
TTITLE0=Unchain My Heart
TTITLE1=Feelin' Alright
TTITLE2=Summer In The City
TTITLE3=You Can Leave Your Hat On
TTITLE4=Up Where We Belong (feat Jennifer Warnes)
TTITLE5=You Are So Beautiful
TTITLE6=With A Little Help From My Friends
TTITLE7=Cry Me A River (Live)
TTITLE8=The Letter (Live)
TTITLE9=Delta Lady
TTITLE10=Many Rivers To Cross
TTITLE11=When The Night Comes
TTITLE12=Night Calls
TTITLE13=Don't You Love Me Anymore
TTITLE14=She Came In Through The Bathroom Window
EXTD=YEAR: 2003
EXTT0=
EXTT1=
EXTT2=
EXTT3=
EXTT4=
EXTT5=
EXTT6=
EXTT7=
EXTT8=
EXTT9=
EXTT10=
EXTT11=
EXTT12=
EXTT13=
EXTT14=
PLAYORDER=
